<svg style="fill: #fff;" xmlns="http://www.w3.org/2000/svg" viewBox="0 0 512.001 512.001"><path d="M487.073 66.843L419.999 0 280.703 139.065l54.001 55.77c-9.05 16.066-28.686 46.841-62.151 80.305-33.469 33.47-64.469 53.33-80.688 62.524l-54.676-53.979L.068 419.99l66.708 67.152c25.499 25.499 64.298 32.107 96.546 16.445 49.21-23.9 123.477-68 197.838-142.361 74.359-74.359 118.458-148.627 142.36-197.837a83.683 83.683 0 0 0 8.414-36.609 84.756 84.756 0 0 0-24.861-59.937zm-19.506 79.082c-22.562 46.453-64.24 116.609-134.67 187.039-70.432 70.433-140.587 112.109-187.038 134.67-16.935 8.225-37.36 4.707-50.775-8.708l-38.502-38.759 80.706-80.221 46.579 45.984 12.462-5.55c2.025-.902 50.223-22.711 104.489-76.977 54.302-54.302 75.658-102.092 76.54-104.101l5.404-12.295L336.8 139.54l83.227-83.09 38.804 38.669c13.445 13.465 16.958 33.88 8.736 50.806z"/></svg>