<svg xmlns="http://www.w3.org/2000/svg" xmlns:xlink="http://www.w3.org/1999/xlink" x="0px" y="0px" viewBox="0 0 512 512" style="enable-background:new 0 0 512 512;" xml:space="preserve">
<g><path d="M437.3,74.7C389.2,26.5,325.1,0,257,0C188.9,0,124.9,26.5,76.7,74.7C28.5,122.8,2,186.9,2,255c0,44.1,11.5,87.6,33.1,125.8
L0,512l131.2-35.2C169.4,498.5,212.9,510,257,510c68.1,0,132.1-26.5,180.3-74.7S512,323.1,512,255S485.5,122.8,437.3,74.7zM257,470.9c-39.9,0-78.9-11-112.7-31.7l-7.2-4.4l-81.9,21.9l21.9-81.9l-4.4-7.2C52.1,333.9,41.1,294.9,41.1,255
C41.1,135.9,138,39.1,257,39.1c119.1,0,215.9,96.9,215.9,215.9C472.9,374,376.1,470.9,257,470.9z"/><rect x="237.5" y="345.4" width="39.1" height="39.1"/><path d="M257,125.5c-43.1,0-78.2,35.1-78.2,78.2v4.9h39.1v-4.9c0-21.5,17.5-39.1,39.1-39.1c21.5,0,39.1,17.5,39.1,39.1
c0,9.6-3.5,18.9-10,26l-48.7,54.4v41.7h39.1v-26.7l38.7-43.3c12.8-14.3,19.9-32.9,19.9-52.1C335.2,160.6,300.1,125.5,257,125.5z"/></g></svg>
