<svg style="fill: #fff;" enable-background="new 0 0 512 512" viewBox="0 0 512 512" xmlns="http://www.w3.org/2000/svg"><path d="m452 0h-392c-33.084 0-60 26.916-60 60v313.333c0 33.084 26.916 60 60 60h176v38.667h-58.667c-11.046 0-20 8.954-20 20s8.954 20 20 20h157.333c11.046 0 20-8.954 20-20s-8.954-20-20-20h-58.666v-38.667h176c33.084 0 60-26.916 60-60v-313.333c0-33.084-26.916-60-60-60zm-392 40h392c11.028 0 20 8.972 20 20v254.667h-432v-254.667c0-11.028 8.972-20 20-20zm392 353.333h-392c-11.028 0-20-8.972-20-20v-18.667h432v18.667c0 11.028-8.972 20-20 20zm-247.679-138.593 157.333-58.667c17.314-6.456 17.301-31.028 0-37.479l-157.333-58.667c-13.054-4.868-26.988 4.801-26.988 18.74v117.333c0 13.921 13.915 23.613 26.988 18.74zm13.012-107.271 80.089 29.864-80.089 29.864z"/></svg>